<?xml version="1.0" standalone="no"?>
<!DOCTYPE svg PUBLIC "-//W3C//DTD SVG 20010904//EN"
 "http://www.w3.org/TR/2001/REC-SVG-20010904/DTD/svg10.dtd">
<svg version="1.0" xmlns="http://www.w3.org/2000/svg"
 width="94.000000pt" height="96.000000pt" viewBox="0 0 94.000000 96.000000"
 preserveAspectRatio="xMidYMid meet">
<metadata>
Created by potrace 1.16, written by Peter Selinger 2001-2019
</metadata>
<g transform="translate(0.000000,96.000000) scale(0.100000,-0.100000)"
fill="#000000" stroke="none">
<path d="M270 832 l-195 -107 -3 -232 -2 -231 198 -121 c110 -67 202 -121 206
-121 3 0 94 55 201 121 l195 122 -2 231 -3 230 -195 108 c-107 59 -197 108
-200 107 -3 0 -93 -49 -200 -107z m393 -16 l188 -104 -58 -32 c-32 -18 -63
-33 -69 -33 -6 0 -92 46 -192 103 l-181 104 57 33 c31 18 59 32 62 33 3 0 90
-47 193 -104z m45 -228 c3 -46 2 -48 -37 -67 l-40 -21 -3 43 -3 42 -182 105
c-101 58 -183 107 -183 110 0 3 17 14 38 25 l37 20 185 -105 185 -106 3 -46z
m-287 100 c98 -57 177 -107 176 -111 -1 -4 -29 -23 -63 -41 l-60 -34 -193 105
-192 106 68 38 c37 20 72 38 77 38 4 1 89 -45 187 -101z m-123 -108 l172 -93
0 -225 0 -224 -32 21 c-18 11 -106 65 -195 118 l-163 98 0 214 0 213 23 -14
c12 -8 100 -56 195 -108z m562 -92 l-1 -213 -180 -110 c-99 -60 -184 -111
-189 -113 -6 -2 -10 79 -10 216 l0 220 65 36 c36 20 68 36 70 36 3 0 5 -18 5
-40 0 -22 2 -40 5 -40 3 0 27 12 55 28 48 26 50 28 50 72 0 45 0 46 63 82 34
21 63 37 65 38 1 0 2 -96 2 -212z"/>
</g>
</svg>
